<svg width="256" height="256" viewBox="0 0 256 256" fill="none" xmlns="http://www.w3.org/2000/svg">
<rect width="256" height="256" rx="128" fill="url(#paint0_radial_10_3)"/>
<path d="M172.048 128.907H94.6917C75.154 128.907 58.4062 144.581 58.8867 164.115C59.1086 172.923 62.7069 181.309 68.9375 187.539C75.1682 193.769 83.5547 197.366 92.3629 197.587C111.893 198.068 127.571 181.324 127.571 161.782V93.6791C127.572 87.4114 130.062 81.4007 134.494 76.9688C138.926 72.5368 144.937 70.0465 151.205 70.0455H172.048" stroke="#2F363C" stroke-width="13" stroke-linecap="round" stroke-linejoin="round"/>
<path d="M187.149 144.008C195.489 144.008 202.25 137.247 202.25 128.907C202.25 120.567 195.489 113.806 187.149 113.806C178.809 113.806 172.048 120.567 172.048 128.907C172.048 137.247 178.809 144.008 187.149 144.008Z" fill="#8503FF"/>
<path d="M187.149 85.1464C195.489 85.1464 202.25 78.3855 202.25 70.0455C202.25 61.7055 195.489 54.9446 187.149 54.9446C178.809 54.9446 172.048 61.7055 172.048 70.0455C172.048 78.3855 178.809 85.1464 187.149 85.1464Z" fill="#0077FF"/>
<defs>
<radialGradient id="paint0_radial_10_3" cx="0" cy="0" r="1" gradientUnits="userSpaceOnUse" gradientTransform="translate(128 128) rotate(90) scale(128)">
<stop stop-color="white"/>
<stop offset="0.701923" stop-color="white"/>
<stop offset="0.971154" stop-color="#CEC6E5"/>
<stop offset="1" stop-color="#AA90DD"/>
</radialGradient>
</defs>
</svg>
